<?xml version="1.0" encoding="UTF-8"?>
<svg id="Layer_2" data-name="Layer 2" xmlns="http://www.w3.org/2000/svg" viewBox="0 0 442.85 116.46">
  <defs>
    <style>
      .cls-1 {
        fill: #ffe608;
      }
    </style>
  </defs>
  <g id="Layer_1-2" data-name="Layer 1">
    <g>
      <g>
        <path class="cls-1" d="M163.12,30.48c1.41-1.08,1.83-1.56,3.19-2.87,1.35-1.29,2.39-3.2,3.15-4.87.79-1.69,1.17-3.89,1.17-5.84,0-5.57-2.04-9.76-6.1-12.59-4.09-2.79-8.14-4.21-15-4.21h-26.59v66.08h27c5.13,0,9.54-.79,13.25-2.4,3.69-1.6,6.55-3.86,8.56-6.8,2.02-2.92,3.02-6.42,3.02-10.44s-1.07-7.43-3.17-10.35c-2.14-2.96-4.94-4.42-8.47-5.7h0ZM140.3,13.06h6.68c2.67,0,4.72.53,6.13,1.59,1.42,1.06,2.11,2.56,2.11,4.54,0,1.34-.32,2.48-.98,3.42-.62.94-1.54,1.67-2.73,2.17-1.16.51-2.58.75-4.25.75h-6.95v-12.46ZM154.34,51.07c-1.52,1.04-3.77,1.59-6.77,1.59h-7.27v-13.25h7.99c2.73,0,4.81.54,6.23,1.66,1.42,1.09,2.11,3.42,2.11,5.37s-.75,3.57-2.3,4.63h0Z"/>
        <path class="cls-1" d="M309.24,37.45c-1.93-.44-4.28-.85-6.03-1.53-.87-.43-1.25-.77-1.23-1.65.06-2.19,3.12-2.2,4.66-2.28,5.4-.03,8.92.99,13.56,3.41l3.38-12.22c-10.11-4.79-26.63-6.63-34.6,2.91-4.2,5.04-3.63,14.17,1.4,18.2,2.9,2.53,8.89,4.4,14.95,5.57,2.93.58,3.34.84,4.31,1.26.96.41,1.52,1.04,1.5,1.93-.09,2.21-3.24,2.44-5.61,2.4-5.19-.12-11.11-2.51-15.63-5.49l-4.95,11.15c5.05,4.17,13.88,7.04,22.15,7.06,9.94.02,19.09-4.2,19.88-15.08.42-11.18-12.07-14.36-17.75-15.65h.02Z"/>
        <path class="cls-1" d="M216.76,22.66c-3.83-2.21-8.25-3.35-13.25-3.35-3.74,0-7.19.69-10.34,2.01-3.13,1.35-5.83,3.15-8.1,5.42-2.26,2.27-4.01,4.88-5.24,7.81-1.23,2.93-1.86,6.01-1.86,9.24,0,4.43,1.06,8.5,3.24,12.21,2.15,3.71,5.16,6.67,9.02,8.92,3.83,2.21,8.28,3.32,13.29,3.32,3.77,0,7.19-.66,10.31-1.98,3.09-1.35,5.81-3.15,8.07-5.42,2.3-2.27,4.06-4.88,5.31-7.84,1.23-2.93,1.86-6.01,1.86-9.21,0-4.43-1.09-8.5-3.27-12.21-2.15-3.71-5.16-6.67-9.02-8.92h0Z"/>
        <path class="cls-1" d="M112.4,53.94c-1.22-.7-2.62-1.05-4.22-1.05-1.19,0-2.29.21-3.29.63-.99.42-1.86.98-2.58,1.7-.72.71-1.27,1.53-1.67,2.45-.39.92-.59,1.89-.59,2.9,0,1.39.33,2.67,1.03,3.83.69,1.16,1.64,2.09,2.87,2.8,1.22.7,2.63,1.04,4.23,1.04,1.2,0,2.28-.2,3.28-.62.98-.42,1.85-.98,2.57-1.7.73-.72,1.29-1.53,1.69-2.46.39-.92.59-1.89.59-2.89,0-1.39-.34-2.67-1.04-3.83-.69-1.16-1.64-2.09-2.87-2.8Z"/>
        <path class="cls-1" d="M280.85,31.58c-2.15-3.71-5.16-6.67-9.02-8.92-3.83-2.21-8.24-3.35-13.29-3.35-3.71,0-7.16.69-10.31,2.01-3.13,1.35-5.83,3.15-8.1,5.42-2.26,2.27-4.01,4.88-5.28,7.81-1.2,2.93-1.83,6.01-1.83,9.24,0,4.43,1.06,8.5,3.24,12.21,2.15,3.71,5.16,6.67,9.02,8.92,3.83,2.21,8.25,3.32,13.25,3.32,3.8,0,7.22-.66,10.34-1.98,3.09-1.35,5.81-3.15,8.07-5.42,2.3-2.27,4.06-4.88,5.31-7.84,1.21-2.93,1.86-6.01,1.86-9.21,0-4.43-1.09-8.5-3.27-12.21h.02Z"/>
        <path class="cls-1" d="M63.01,20.64c-2.04-.87-4.29-1.36-6.66-1.36-4.49,0-8.57,1.74-11.61,4.59-.76.71-1.45,1.49-2.07,2.32-1.79-2.42-4.21-4.36-7.02-5.55-2.04-.87-4.29-1.36-6.66-1.36-5.15,0-9.77,2.29-12.88,5.92v-4.56H0v45.53h16.1v-25.95c0-3.46,2.8-6.28,6.26-6.28s6.26,2.8,6.26,6.28v25.95h16.1v-25.95c0-3.46,2.8-6.28,6.26-6.28s6.26,2.8,6.26,6.28v25.95h16.1v-29.85c0-7.04-4.27-13.09-10.36-15.68h.02Z"/>
        <path class="cls-1" d="M404.91,27.49c-2.04-2.61-4.64-4.62-7.77-6.04-3.15-1.46-6.74-2.16-10.8-2.16-3.62,0-6.95.59-9.96,1.78-3.03,1.19-5.66,2.85-7.89,5.01-2.22,2.14-3.94,4.69-5.17,7.65-1.22,2.93-1.37,7.04-1.37,10.55,0,4.8,1.06,8.98,3.15,12.58,2.08,3.56,4.99,6.37,8.76,8.36,3.77,2.02,8.19,3.01,13.21,3.01,2.28,0,4.67-.23,7.21-.73,2.55-.5,4.94-1.17,7.19-2.02,2.22-.82,4.03-1.76,5.4-2.81l-4.96-11.45c-2.27,1.47-4.62,2.56-6.98,3.22-2.36.69-4.77,1.34-7.49,1.34-2.13,0-3.36-.33-4.95-.97-1.6-.66-2.85-1.53-3.8-2.67-.91-1.14-1.43-1.96-1.51-3.43h32.4c.79-4.07.31-8.67-.44-12.13-.79-3.47-2.19-6.52-4.24-9.11ZM377.36,38.14c.21-1.93,1.14-3.48,2.81-4.62,1.64-1.17,3.72-1.72,6.2-1.72s4.4.55,5.9,1.72c1.46,1.14,2.23,2.69,2.25,4.62h-17.15Z"/>
        <path class="cls-1" d="M347.19,49.37v-16.12h12.55v-12.66h-12.56V0h-16.25l.02,49.37c0,10.4,8.46,18.86,18.85,18.86,4.72,0,8.29-.6,11.87-2.38l-4.64-12.15c-3.57,1.43-9.77,1.27-9.83-4.33Z"/>
        <path class="cls-1" d="M102.57,19.14c-14.76,0-23.95,8.76-23.95,23.37v23.67h15.77v-23.67c0-4.51,3.67-8.71,8.18-8.72.99,0,1.34.31,1.34.31l4.01-13.94c-1.79-.71-3.47-1.02-5.36-1.02Z"/>
        <path class="cls-1" d="M437.49,19.14c-14.76,0-23.95,8.76-23.95,23.37v23.67h15.77v-23.67c0-4.51,3.67-8.71,8.18-8.72.99,0,1.34.31,1.34.31l4.01-13.94c-1.79-.71-3.47-1.02-5.36-1.02Z"/>
      </g>
      <g>
        <path class="cls-1" d="M3,108.22v-15.77H0v-2.62h3v-1.95c0-1.37.19-2.49.57-3.37.38-.87,1-1.52,1.85-1.94.85-.42,1.97-.63,3.37-.63h2.09v2.62h-1.78c-.84,0-1.48.14-1.94.42-.45.28-.77.69-.94,1.24-.17.55-.26,1.22-.26,2.01v1.6h4.92v2.62h-4.92v15.77h-2.96Z"/>
        <path class="cls-1" d="M21.51,108.43c-2.54,0-4.46-.67-5.77-2.02-1.31-1.35-1.97-3.42-1.97-6.21v-10.36h2.96v10.22c0,1.21.17,2.24.52,3.1.35.86.88,1.52,1.59,1.97.71.45,1.6.68,2.67.68s2.03-.23,2.76-.68c.72-.45,1.25-1.11,1.59-1.97.34-.86.51-1.89.51-3.1v-10.22h2.96v10.36c0,2.79-.67,4.86-2.01,6.21-1.34,1.35-3.27,2.02-5.81,2.02Z"/>
        <path class="cls-1" d="M33.81,108.22v-24.66h2.97v24.66h-2.97Z"/>
        <path class="cls-1" d="M41.33,108.22v-24.66h2.97v24.66h-2.97Z"/>
        <path class="cls-1" d="M48.86,99.75v-2.72h10.81v2.72h-10.81Z"/>
        <path class="cls-1" d="M72.33,108.43c-1.93,0-3.53-.4-4.8-1.2-1.27-.8-2.21-1.91-2.83-3.33-.62-1.42-.92-3.02-.92-4.81s.32-3.33.96-4.76c.64-1.43,1.62-2.57,2.93-3.42s2.98-1.27,5.01-1.27c1.26,0,2.38.21,3.37.63.99.42,1.81,1.03,2.46,1.83.65.8,1.1,1.81,1.36,3.02h-3.03c-.35-1.02-.9-1.75-1.66-2.18-.76-.43-1.65-.64-2.67-.64-1.4,0-2.51.33-3.35.98-.84.65-1.45,1.49-1.83,2.53-.38,1.04-.58,2.13-.58,3.3s.2,2.33.59,3.35c.4,1.02,1.01,1.84,1.85,2.46.84.62,1.92.92,3.24.92.98,0,1.9-.21,2.77-.63s1.45-1.16,1.73-2.23h3.07c-.23,1.26-.73,2.29-1.48,3.1s-1.67,1.41-2.76,1.8c-1.08.38-2.23.58-3.44.58Z"/>
        <path class="cls-1" d="M91.4,116.46c-1.42,0-2.79-.2-4.1-.59-1.31-.4-2.49-1.08-3.54-2.06l1.29-2.34c.91.72,1.88,1.29,2.91,1.71,1.03.42,2.12.63,3.26.63,1.91,0,3.27-.55,4.1-1.66.82-1.1,1.24-2.51,1.24-4.2v-2.2c-.42.63-.95,1.15-1.59,1.55-.64.41-1.34.71-2.11.91s-1.56.3-2.37.3c-1.81,0-3.24-.36-4.29-1.08-1.05-.72-1.79-1.72-2.23-3s-.66-2.76-.66-4.43v-10.15h2.97v9.31c0,.84.05,1.66.16,2.46.1.8.32,1.52.65,2.16.32.64.8,1.15,1.43,1.53.63.38,1.46.57,2.51.57,1.33,0,2.39-.32,3.19-.98.8-.65,1.38-1.52,1.74-2.62.36-1.09.54-2.3.54-3.63v-8.82h2.96v18.38c0,1.33-.17,2.5-.52,3.52-.35,1.02-.87,1.88-1.57,2.58-.7.7-1.54,1.23-2.53,1.59-.99.36-2.13.54-3.44.54Z"/>
        <path class="cls-1" d="M111.83,108.43c-1.93,0-3.53-.4-4.8-1.2-1.27-.8-2.21-1.91-2.83-3.33-.62-1.42-.92-3.02-.92-4.81s.32-3.33.96-4.76,1.62-2.57,2.93-3.42c1.31-.85,2.98-1.27,5.01-1.27,1.26,0,2.38.21,3.37.63.99.42,1.81,1.03,2.46,1.83.65.8,1.1,1.81,1.36,3.02h-3.03c-.35-1.02-.9-1.75-1.66-2.18-.76-.43-1.65-.64-2.67-.64-1.4,0-2.51.33-3.35.98-.84.65-1.45,1.49-1.83,2.53-.38,1.04-.58,2.13-.58,3.3s.2,2.33.59,3.35c.4,1.02,1.01,1.84,1.85,2.46.84.62,1.92.92,3.24.92.98,0,1.9-.21,2.77-.63s1.45-1.16,1.73-2.23h3.07c-.23,1.26-.73,2.29-1.48,3.1-.76.81-1.67,1.41-2.76,1.8-1.08.38-2.23.58-3.44.58Z"/>
        <path class="cls-1" d="M123.01,108.22v-24.66h2.97v24.66h-2.97Z"/>
        <path class="cls-1" d="M138.48,108.43c-1.95,0-3.57-.4-4.85-1.2-1.28-.8-2.23-1.91-2.86-3.33-.63-1.42-.94-3.03-.94-4.85s.33-3.46.99-4.87,1.63-2.52,2.91-3.33c1.28-.81,2.85-1.22,4.71-1.22,1.44,0,2.68.27,3.71.82,1.04.55,1.89,1.27,2.56,2.18s1.16,1.9,1.47,2.98c.3,1.08.43,2.17.38,3.26-.02.21-.04.42-.05.63s-.03.42-.05.63h-13.64c.09,1.07.36,2.03.8,2.89.44.86,1.07,1.54,1.88,2.04.81.5,1.83.75,3.03.75.6,0,1.21-.08,1.83-.23.62-.15,1.17-.41,1.67-.79.5-.37.86-.87,1.06-1.5h3.03c-.28,1.19-.8,2.16-1.57,2.91s-1.69,1.31-2.76,1.67c-1.07.36-2.19.54-3.35.54ZM132.9,97.55h10.64c-.02-1.05-.26-1.96-.7-2.76-.44-.79-1.04-1.41-1.8-1.85s-1.66-.66-2.7-.66c-1.14,0-2.1.24-2.88.73-.78.49-1.38,1.13-1.8,1.92-.42.79-.67,1.66-.77,2.62Z"/>
        <path class="cls-1" d="M159.93,108.22v-18.38h2.86l.14,2.2c.4-.56.84-1.01,1.34-1.36.5-.35,1.06-.61,1.67-.79.62-.17,1.27-.26,1.97-.26,1.28,0,2.31.27,3.11.82.79.55,1.38,1.26,1.78,2.15.42-.63.9-1.16,1.45-1.6.55-.44,1.16-.78,1.85-1.01.69-.23,1.45-.35,2.28-.35,1.35,0,2.44.29,3.26.87.82.58,1.42,1.37,1.8,2.35.37.99.56,2.1.56,3.33v12.03h-2.96v-10.53c0-.6-.03-1.22-.09-1.85-.06-.63-.2-1.21-.44-1.76-.23-.55-.58-.99-1.03-1.33s-1.09-.51-1.9-.51c-.77,0-1.41.18-1.94.54s-.95.84-1.27,1.45c-.33.6-.56,1.25-.7,1.94-.14.69-.21,1.37-.21,2.04v10.01h-2.96v-10.57c0-.58-.03-1.19-.09-1.81-.06-.63-.19-1.21-.38-1.76s-.52-.99-.98-1.33c-.45-.34-1.08-.51-1.87-.51-1.12,0-1.99.32-2.62.96s-1.06,1.42-1.31,2.34c-.24.92-.37,1.82-.37,2.7v9.98h-2.97Z"/>
        <path class="cls-1" d="M194.1,108.43c-.84,0-1.65-.11-2.42-.33-.78-.22-1.48-.56-2.09-1.01-.62-.45-1.11-1.02-1.47-1.71-.36-.69-.54-1.48-.54-2.39,0-1.05.19-1.93.57-2.65.38-.72.9-1.29,1.55-1.71s1.41-.72,2.27-.91c.86-.19,1.75-.28,2.69-.28h5.41c0-1.05-.15-1.95-.44-2.72-.29-.77-.76-1.37-1.41-1.8-.65-.43-1.51-.64-2.58-.64-.65,0-1.26.07-1.81.21-.56.14-1.04.36-1.43.66-.4.3-.69.71-.87,1.22h-3.17c.16-.84.48-1.55.96-2.15.48-.59,1.06-1.08,1.74-1.47.69-.38,1.42-.67,2.22-.85.79-.19,1.58-.28,2.37-.28,2.65,0,4.54.78,5.65,2.34,1.12,1.56,1.67,3.66,1.67,6.31v9.94h-2.48l-.17-2.34c-.51.7-1.13,1.23-1.85,1.6-.72.37-1.46.62-2.22.75-.76.13-1.47.19-2.15.19ZM194.38,105.82c1.16,0,2.17-.19,3.02-.58.85-.38,1.51-.95,1.97-1.69.46-.74.7-1.65.7-2.72v-.91h-3.24c-.77,0-1.52.01-2.27.03-.74.02-1.42.12-2.02.28-.61.16-1.09.44-1.45.84-.36.4-.54.97-.54,1.71,0,.7.18,1.27.54,1.71s.84.77,1.43.99c.59.22,1.21.33,1.87.33Z"/>
        <path class="cls-1" d="M207.42,108.22v-18.38h2.86l.14,2.86c.47-.72,1.01-1.3,1.62-1.74s1.3-.77,2.06-.99c.76-.22,1.58-.33,2.46-.33h.94v2.79h-1.08c-1.44,0-2.61.31-3.51.92-.9.62-1.54,1.44-1.94,2.48-.4,1.04-.59,2.18-.59,3.44v8.96h-2.97Z"/>
        <path class="cls-1" d="M220.34,108.22v-24.66h2.97v14.2h3.21l5.51-7.92h3.35l-6.14,8.76,6.66,9.63h-3.49l-5.55-7.88h-3.56v7.88h-2.97Z"/>
        <path class="cls-1" d="M245.4,108.43c-1.95,0-3.57-.4-4.85-1.2-1.28-.8-2.23-1.91-2.86-3.33-.63-1.42-.94-3.03-.94-4.85s.33-3.46.99-4.87c.66-1.41,1.63-2.52,2.91-3.33,1.28-.81,2.85-1.22,4.71-1.22,1.44,0,2.68.27,3.71.82,1.04.55,1.89,1.27,2.56,2.18s1.16,1.9,1.47,2.98c.3,1.08.43,2.17.38,3.26-.02.21-.04.42-.05.63s-.03.42-.05.63h-13.64c.09,1.07.36,2.03.8,2.89.44.86,1.07,1.54,1.88,2.04.81.5,1.83.75,3.03.75.6,0,1.21-.08,1.83-.23.62-.15,1.17-.41,1.67-.79.5-.37.86-.87,1.06-1.5h3.03c-.28,1.19-.8,2.16-1.57,2.91-.77.76-1.69,1.31-2.76,1.67-1.07.36-2.19.54-3.35.54ZM239.82,97.55h10.64c-.02-1.05-.26-1.96-.7-2.76-.44-.79-1.04-1.41-1.8-1.85-.76-.44-1.66-.66-2.7-.66-1.14,0-2.1.24-2.88.73-.78.49-1.38,1.13-1.8,1.92-.42.79-.67,1.66-.77,2.62Z"/>
        <path class="cls-1" d="M264.12,108.22c-1.4,0-2.52-.21-3.37-.63-.85-.42-1.46-1.07-1.85-1.95-.38-.88-.57-2-.57-3.35v-9.84h-3v-2.62h3v-5.48h2.96v5.48h4.92v2.62h-4.92v9.52c0,1.26.23,2.18.68,2.77.45.59,1.38.89,2.77.89h1.36v2.58h-1.99Z"/>
        <path class="cls-1" d="M270.73,87.12c-.61,0-1.09-.19-1.45-.56-.36-.37-.54-.85-.54-1.43s.19-1.05.56-1.41c.37-.36.85-.54,1.43-.54.53,0,1.01.19,1.41.56s.61.84.61,1.39-.2,1.06-.59,1.43c-.4.37-.87.56-1.43.56ZM269.26,108.22v-18.38h2.97v18.38h-2.97Z"/>
        <path class="cls-1" d="M276.8,108.22v-18.38h2.86l.14,2.79c.42-.67.95-1.23,1.6-1.67.65-.44,1.37-.77,2.15-.99.78-.22,1.54-.33,2.28-.33,1.79,0,3.19.37,4.2,1.12,1.01.74,1.73,1.75,2.16,3.02.43,1.27.64,2.7.64,4.31v10.15h-2.96v-9.35c0-.86-.05-1.69-.16-2.48-.1-.79-.31-1.5-.63-2.13-.31-.63-.76-1.12-1.34-1.48-.58-.36-1.36-.54-2.34-.54-1.21,0-2.24.34-3.09,1.01-.85.67-1.49,1.58-1.92,2.72-.43,1.14-.64,2.42-.64,3.84v8.41h-2.97Z"/>
        <path class="cls-1" d="M305.17,116.46c-1.26,0-2.42-.19-3.49-.58-1.07-.38-1.98-.98-2.72-1.8-.74-.81-1.24-1.85-1.5-3.1h3.07c.19.7.53,1.26,1.05,1.67.51.42,1.1.72,1.78.89s1.34.26,1.99.26c1.26,0,2.27-.25,3.05-.75.78-.5,1.34-1.19,1.69-2.06.35-.87.52-1.87.52-2.98v-2.55c-.4.7-.92,1.27-1.57,1.71-.65.44-1.36.76-2.13.96-.77.2-1.56.3-2.37.3-1.86,0-3.38-.41-4.57-1.24-1.19-.83-2.06-1.94-2.63-3.35-.57-1.41-.85-2.99-.85-4.76s.29-3.37.87-4.8c.58-1.43,1.48-2.56,2.69-3.4,1.21-.84,2.76-1.26,4.64-1.26,1.07,0,2.15.2,3.24.59,1.09.4,1.99,1.04,2.69,1.92l.14-2.3h2.82v18.24c0,1.72-.31,3.21-.92,4.46-.62,1.26-1.55,2.22-2.79,2.9-1.24.67-2.81,1.01-4.69,1.01ZM304.96,105.82c1.23,0,2.27-.31,3.1-.94s1.48-1.46,1.92-2.51c.44-1.05.66-2.19.66-3.42s-.22-2.42-.65-3.42c-.43-1-1.06-1.79-1.9-2.37-.84-.58-1.9-.87-3.17-.87s-2.39.3-3.19.91c-.8.61-1.38,1.42-1.74,2.44-.36,1.02-.54,2.16-.54,3.42s.19,2.47.56,3.49c.37,1.02.96,1.83,1.78,2.41.81.58,1.87.87,3.17.87Z"/>
        <path class="cls-1" d="M333.56,108.43c-.84,0-1.65-.11-2.42-.33-.78-.22-1.48-.56-2.09-1.01-.62-.45-1.11-1.02-1.47-1.71-.36-.69-.54-1.48-.54-2.39,0-1.05.19-1.93.57-2.65.38-.72.9-1.29,1.55-1.71s1.41-.72,2.27-.91c.86-.19,1.75-.28,2.69-.28h5.41c0-1.05-.15-1.95-.44-2.72-.29-.77-.76-1.37-1.41-1.8-.65-.43-1.51-.64-2.58-.64-.65,0-1.26.07-1.81.21-.56.14-1.04.36-1.43.66-.4.3-.69.71-.87,1.22h-3.17c.16-.84.48-1.55.96-2.15.48-.59,1.06-1.08,1.74-1.47.69-.38,1.42-.67,2.22-.85.79-.19,1.58-.28,2.37-.28,2.65,0,4.54.78,5.65,2.34,1.12,1.56,1.67,3.66,1.67,6.31v9.94h-2.48l-.17-2.34c-.51.7-1.13,1.23-1.85,1.6-.72.37-1.46.62-2.22.75-.76.13-1.47.19-2.15.19ZM333.84,105.82c1.16,0,2.17-.19,3.02-.58.85-.38,1.51-.95,1.97-1.69.46-.74.7-1.65.7-2.72v-.91h-3.24c-.77,0-1.52.01-2.27.03-.74.02-1.42.12-2.02.28-.61.16-1.09.44-1.45.84-.36.4-.54.97-.54,1.71,0,.7.18,1.27.54,1.71s.84.77,1.43.99c.59.22,1.21.33,1.87.33Z"/>
        <path class="cls-1" d="M354.76,116.46c-1.26,0-2.42-.19-3.49-.58-1.07-.38-1.98-.98-2.72-1.8-.74-.81-1.24-1.85-1.5-3.1h3.07c.19.7.53,1.26,1.05,1.67.51.42,1.1.72,1.78.89s1.34.26,1.99.26c1.26,0,2.27-.25,3.05-.75.78-.5,1.34-1.19,1.69-2.06.35-.87.52-1.87.52-2.98v-2.55c-.4.7-.92,1.27-1.57,1.71-.65.44-1.36.76-2.13.96-.77.2-1.56.3-2.37.3-1.86,0-3.38-.41-4.57-1.24-1.19-.83-2.06-1.94-2.63-3.35-.57-1.41-.85-2.99-.85-4.76s.29-3.37.87-4.8c.58-1.43,1.48-2.56,2.69-3.4,1.21-.84,2.76-1.26,4.64-1.26,1.07,0,2.15.2,3.24.59,1.09.4,1.99,1.04,2.69,1.92l.14-2.3h2.82v18.24c0,1.72-.31,3.21-.92,4.46-.62,1.26-1.55,2.22-2.79,2.9-1.24.67-2.81,1.01-4.69,1.01ZM354.56,105.82c1.23,0,2.27-.31,3.1-.94s1.48-1.46,1.92-2.51c.44-1.05.66-2.19.66-3.42s-.22-2.42-.65-3.42c-.43-1-1.06-1.79-1.9-2.37-.84-.58-1.9-.87-3.17-.87s-2.39.3-3.19.91c-.8.61-1.38,1.42-1.74,2.44-.36,1.02-.54,2.16-.54,3.42s.19,2.47.56,3.49c.37,1.02.96,1.83,1.78,2.41.81.58,1.87.87,3.17.87Z"/>
        <path class="cls-1" d="M375.62,108.43c-1.95,0-3.57-.4-4.85-1.2-1.28-.8-2.23-1.91-2.86-3.33-.63-1.42-.94-3.03-.94-4.85s.33-3.46.99-4.87c.66-1.41,1.63-2.52,2.91-3.33,1.28-.81,2.85-1.22,4.71-1.22,1.44,0,2.68.27,3.71.82s1.89,1.27,2.56,2.18,1.16,1.9,1.47,2.98c.3,1.08.43,2.17.38,3.26-.02.21-.04.42-.05.63s-.03.42-.05.63h-13.64c.09,1.07.36,2.03.8,2.89.44.86,1.07,1.54,1.88,2.04.81.5,1.83.75,3.03.75.6,0,1.21-.08,1.83-.23.62-.15,1.17-.41,1.67-.79.5-.37.86-.87,1.06-1.5h3.03c-.28,1.19-.8,2.16-1.57,2.91-.77.76-1.69,1.31-2.76,1.67-1.07.36-2.19.54-3.35.54ZM370.04,97.55h10.64c-.02-1.05-.26-1.96-.7-2.76-.44-.79-1.04-1.41-1.8-1.85s-1.66-.66-2.7-.66c-1.14,0-2.1.24-2.88.73-.78.49-1.38,1.13-1.8,1.92-.42.79-.67,1.66-.77,2.62Z"/>
        <path class="cls-1" d="M387.48,108.22v-18.38h2.86l.14,2.79c.42-.67.95-1.23,1.6-1.67.65-.44,1.37-.77,2.15-.99.78-.22,1.54-.33,2.28-.33,1.79,0,3.19.37,4.2,1.12,1.01.74,1.73,1.75,2.16,3.02.43,1.27.64,2.7.64,4.31v10.15h-2.96v-9.35c0-.86-.05-1.69-.16-2.48-.1-.79-.31-1.5-.63-2.13-.31-.63-.76-1.12-1.34-1.48-.58-.36-1.36-.54-2.34-.54-1.21,0-2.24.34-3.09,1.01-.85.67-1.49,1.58-1.92,2.72-.43,1.14-.64,2.42-.64,3.84v8.41h-2.97Z"/>
        <path class="cls-1" d="M415.71,108.43c-1.93,0-3.53-.4-4.8-1.2-1.27-.8-2.21-1.91-2.83-3.33-.62-1.42-.92-3.02-.92-4.81s.32-3.33.96-4.76c.64-1.43,1.62-2.57,2.93-3.42,1.31-.85,2.98-1.27,5.01-1.27,1.26,0,2.38.21,3.37.63.99.42,1.81,1.03,2.46,1.83.65.8,1.1,1.81,1.36,3.02h-3.03c-.35-1.02-.9-1.75-1.66-2.18-.76-.43-1.65-.64-2.67-.64-1.4,0-2.51.33-3.35.98-.84.65-1.45,1.49-1.83,2.53-.38,1.04-.58,2.13-.58,3.3s.2,2.33.59,3.35c.4,1.02,1.01,1.84,1.85,2.46.84.62,1.92.92,3.24.92.98,0,1.9-.21,2.77-.63s1.45-1.16,1.73-2.23h3.07c-.23,1.26-.73,2.29-1.48,3.1s-1.67,1.41-2.76,1.8c-1.08.38-2.23.58-3.44.58Z"/>
        <path class="cls-1" d="M434.79,116.46c-1.42,0-2.79-.2-4.1-.59-1.31-.4-2.49-1.08-3.54-2.06l1.29-2.34c.91.72,1.88,1.29,2.91,1.71,1.03.42,2.12.63,3.26.63,1.91,0,3.27-.55,4.1-1.66.82-1.1,1.24-2.51,1.24-4.2v-2.2c-.42.63-.95,1.15-1.59,1.55-.64.41-1.34.71-2.11.91s-1.56.3-2.37.3c-1.81,0-3.24-.36-4.29-1.08-1.05-.72-1.79-1.72-2.23-3s-.66-2.76-.66-4.43v-10.15h2.97v9.31c0,.84.05,1.66.16,2.46.1.8.32,1.52.65,2.16.32.64.8,1.15,1.43,1.53.63.38,1.46.57,2.51.57,1.33,0,2.39-.32,3.19-.98.8-.65,1.38-1.52,1.74-2.62.36-1.09.54-2.3.54-3.63v-8.82h2.96v18.38c0,1.33-.17,2.5-.52,3.52-.35,1.02-.87,1.88-1.57,2.58-.7.7-1.54,1.23-2.53,1.59-.99.36-2.13.54-3.44.54Z"/>
      </g>
    </g>
  </g>
</svg>