<?xml version="1.0" encoding="UTF-8"?>
<svg id="Layer_2" data-name="Layer 2" xmlns="http://www.w3.org/2000/svg" viewBox="0 0 442.85 68.23">
  <defs>
    <style>
      .cls-1 {
        fill: #ffe608;
      }

      .cls-2 {
        fill: #fff;
      }
    </style>
  </defs>
  <g id="Layer_1-2" data-name="Layer 1">
    <g>
      <path class="cls-2" d="M163.12,30.48c1.41-1.08,1.83-1.56,3.19-2.87,1.35-1.29,2.39-3.2,3.15-4.87.79-1.69,1.17-3.89,1.17-5.84,0-5.57-2.04-9.76-6.1-12.59-4.09-2.79-8.14-4.21-15-4.21h-26.59v66.08h27c5.13,0,9.54-.79,13.25-2.4,3.69-1.6,6.55-3.86,8.56-6.8,2.02-2.92,3.02-6.42,3.02-10.44s-1.07-7.43-3.17-10.35c-2.14-2.96-4.94-4.42-8.47-5.7h0ZM140.3,13.06h6.68c2.67,0,4.72.53,6.13,1.59,1.42,1.06,2.11,2.56,2.11,4.54,0,1.34-.32,2.48-.98,3.42-.62.94-1.54,1.67-2.73,2.17-1.16.51-2.58.75-4.25.75h-6.95v-12.46ZM154.34,51.07c-1.52,1.04-3.77,1.59-6.77,1.59h-7.27v-13.25h7.99c2.73,0,4.81.54,6.23,1.66,1.42,1.09,2.11,3.42,2.11,5.37s-.75,3.57-2.3,4.63h0Z"/>
      <path class="cls-2" d="M309.24,37.45c-1.93-.44-4.28-.85-6.03-1.53-.87-.43-1.25-.77-1.23-1.65.06-2.19,3.12-2.2,4.66-2.28,5.4-.03,8.92.99,13.56,3.41l3.38-12.22c-10.11-4.79-26.63-6.63-34.6,2.91-4.2,5.04-3.63,14.17,1.4,18.2,2.9,2.53,8.89,4.4,14.95,5.57,2.93.58,3.34.84,4.31,1.26.96.41,1.52,1.04,1.5,1.93-.09,2.21-3.24,2.44-5.61,2.4-5.19-.12-11.11-2.51-15.63-5.49l-4.95,11.15c5.05,4.17,13.88,7.04,22.15,7.06,9.94.02,19.09-4.2,19.88-15.08.42-11.18-12.07-14.36-17.75-15.65h.02Z"/>
      <path class="cls-1" d="M216.76,22.66c-3.83-2.21-8.25-3.35-13.25-3.35-3.74,0-7.19.69-10.34,2.01-3.13,1.35-5.83,3.15-8.1,5.42-2.26,2.27-4.01,4.88-5.24,7.81-1.23,2.93-1.86,6.01-1.86,9.24,0,4.43,1.06,8.5,3.24,12.21,2.15,3.71,5.16,6.67,9.02,8.92,3.83,2.21,8.28,3.32,13.29,3.32,3.77,0,7.19-.66,10.31-1.98,3.09-1.35,5.81-3.15,8.07-5.42,2.3-2.27,4.06-4.88,5.31-7.84,1.23-2.93,1.86-6.01,1.86-9.21,0-4.43-1.09-8.5-3.27-12.21-2.15-3.71-5.16-6.67-9.02-8.92h0Z"/>
      <path class="cls-2" d="M112.4,53.94c-1.22-.7-2.62-1.05-4.22-1.05-1.19,0-2.29.21-3.29.63-.99.42-1.86.98-2.58,1.7-.72.71-1.27,1.53-1.67,2.45-.39.92-.59,1.89-.59,2.9,0,1.39.33,2.67,1.03,3.83.69,1.16,1.64,2.09,2.87,2.8,1.22.7,2.63,1.04,4.23,1.04,1.2,0,2.28-.2,3.28-.62.98-.42,1.85-.98,2.57-1.7.73-.72,1.29-1.53,1.69-2.46.39-.92.59-1.89.59-2.89,0-1.39-.34-2.67-1.04-3.83-.69-1.16-1.64-2.09-2.87-2.8Z"/>
      <path class="cls-1" d="M280.85,31.58c-2.15-3.71-5.16-6.67-9.02-8.92-3.83-2.21-8.24-3.35-13.29-3.35-3.71,0-7.16.69-10.31,2.01-3.13,1.35-5.83,3.15-8.1,5.42-2.26,2.27-4.01,4.88-5.28,7.81-1.2,2.93-1.83,6.01-1.83,9.24,0,4.43,1.06,8.5,3.24,12.21,2.15,3.71,5.16,6.67,9.02,8.92,3.83,2.21,8.25,3.32,13.25,3.32,3.8,0,7.22-.66,10.34-1.98,3.09-1.35,5.81-3.15,8.07-5.42,2.3-2.27,4.06-4.88,5.31-7.84,1.21-2.93,1.86-6.01,1.86-9.21,0-4.43-1.09-8.5-3.27-12.21h.02Z"/>
      <path class="cls-2" d="M63.01,20.64c-2.04-.87-4.29-1.36-6.66-1.36-4.49,0-8.57,1.74-11.61,4.59-.76.71-1.45,1.49-2.07,2.32-1.79-2.42-4.21-4.36-7.02-5.55-2.04-.87-4.29-1.36-6.66-1.36-5.15,0-9.77,2.29-12.88,5.92v-4.56H0v45.53h16.1v-25.95c0-3.46,2.8-6.28,6.26-6.28s6.26,2.8,6.26,6.28v25.95h16.1v-25.95c0-3.46,2.8-6.28,6.26-6.28s6.26,2.8,6.26,6.28v25.95h16.1v-29.85c0-7.04-4.27-13.09-10.36-15.68h.02Z"/>
      <path class="cls-2" d="M404.91,27.49c-2.04-2.61-4.64-4.62-7.77-6.04-3.15-1.46-6.74-2.16-10.8-2.16-3.62,0-6.95.59-9.96,1.78-3.03,1.19-5.66,2.85-7.89,5.01-2.22,2.14-3.94,4.69-5.17,7.65-1.22,2.93-1.37,7.04-1.37,10.55,0,4.8,1.06,8.98,3.15,12.58,2.08,3.56,4.99,6.37,8.76,8.36,3.77,2.02,8.19,3.01,13.21,3.01,2.28,0,4.67-.23,7.21-.73,2.55-.5,4.94-1.17,7.19-2.02,2.22-.82,4.03-1.76,5.4-2.81l-4.96-11.45c-2.27,1.47-4.62,2.56-6.98,3.22-2.36.69-4.77,1.34-7.49,1.34-2.13,0-3.36-.33-4.95-.97-1.6-.66-2.85-1.53-3.8-2.67-.91-1.14-1.43-1.96-1.51-3.43h32.4c.79-4.07.31-8.67-.44-12.13-.79-3.47-2.19-6.52-4.24-9.11ZM377.36,38.14c.21-1.93,1.14-3.48,2.81-4.62,1.64-1.17,3.72-1.72,6.2-1.72s4.4.55,5.9,1.72c1.46,1.14,2.23,2.69,2.25,4.62h-17.15Z"/>
      <path class="cls-2" d="M347.19,49.37v-16.12h12.55v-12.66h-12.56V0h-16.25l.02,49.37c0,10.4,8.46,18.86,18.85,18.86,4.72,0,8.29-.6,11.87-2.38l-4.64-12.15c-3.57,1.43-9.77,1.27-9.83-4.33Z"/>
      <path class="cls-2" d="M102.57,19.14c-14.76,0-23.95,8.76-23.95,23.37v23.67h15.77v-23.67c0-4.51,3.67-8.71,8.18-8.72.99,0,1.34.31,1.34.31l4.01-13.94c-1.79-.71-3.47-1.02-5.36-1.02Z"/>
      <path class="cls-2" d="M437.49,19.14c-14.76,0-23.95,8.76-23.95,23.37v23.67h15.77v-23.67c0-4.51,3.67-8.71,8.18-8.72.99,0,1.34.31,1.34.31l4.01-13.94c-1.79-.71-3.47-1.02-5.36-1.02Z"/>
    </g>
  </g>
</svg>